PathFileType	4	(X/Y/Z)	C:/Users/opensim2020/Desktop/walking_exp_matlab/subject06_walking22_straight_02.trc	
DataRate	CameraRate	NumFrames	NumMarkers	Units	OrigDataRate	OrigDataStartFrame	OrigNumFrames	
100.00	100.00	9	44	mm	100.00	1319	81	
Frame#	Time	LFHD			RFHD			LBHD			RBHD			C7			T10			CLAV			STRN			RBAK			LSHO			LUPA			LELB			LFRM			LWRA			LWRB			LFIN			RSHO			RUPA			RELB			RFRM			RWRA			RWRB			RFIN			LASI			RASI			LPSI			RPSI			LTHI			LKNE			LTIB			LANK			LHEE			LTOE			RTHI			RKNE			RTIB			RANK			RHEE			RTOE			*39			*40			*41			*42			*43			
		X1	Y1	Z1	X2	Y2	Z2	X3	Y3	Z3	X4	Y4	Z4	X5	Y5	Z5	X6	Y6	Z6	X7	Y7	Z7	X8	Y8	Z8	X9	Y9	Z9	X10	Y10	Z10	X11	Y11	Z11	X12	Y12	Z12	X13	Y13	Z13	X14	Y14	Z14	X15	Y15	Z15	X16	Y16	Z16	X17	Y17	Z17	X18	Y18	Z18	X19	Y19	Z19	X20	Y20	Z20	X21	Y21	Z21	X22	Y22	Z22	X23	Y23	Z23	X24	Y24	Z24	X25	Y25	Z25	X26	Y26	Z26	X27	Y27	Z27	X28	Y28	Z28	X29	Y29	Z29	X30	Y30	Z30	X31	Y31	Z31	X32	Y32	Z32	X33	Y33	Z33	X34	Y34	Z34	X35	Y35	Z35	X36	Y36	Z36	X37	Y37	Z37	X38	Y38	Z38	X39	Y39	Z39	X40	Y40	Z40	X41	Y41	Z41	X42	Y42	Z42	X43	Y43	Z43	X44	Y44	Z44	

61	0.600	-874.13922	-158.58644	1621.74829	-1004.91394	-178.29326	1630.82605	-902.04639	-27.17217	1570.28821	-1029.12378	-48.31642	1583.61157	-965.73340	-35.08408	1420.76160	-989.41394	-6.54635	1089.59534	-971.51215	-145.98927	1344.29553	-978.43372	-188.28209	1169.51929	-1054.62610	37.92662	1253.09717	-806.98920	-94.50502	1364.65515	-740.33521	-49.05355	1167.87146	-731.03894	-8.15934	1062.94800	-702.68982	18.24297	917.21472	-733.53253	-4.43852	785.85010	-703.73010	57.13182	804.53229	-697.80536	51.04559	713.93970	-1130.10486	-96.73080	1386.03931	-1232.30701	-53.85022	1197.22803	-1252.35046	-65.57576	1079.91675	-1267.25928	-127.31718	981.33466	-1224.42151	-243.78883	895.47626	-1265.81555	-199.98032	865.94452	-1262.76794	-271.56549	823.20361	-892.45465	-202.83337	947.32050	-1110.54956	-177.38882	934.33606	-905.19800	-39.66680	960.16748	-1072.67383	-28.94935	949.77728	-827.92340	-218.93222	638.97919	-862.06183	-275.71484	489.32285	-867.70526	-249.68642	233.11665	-909.24066	-231.80664	64.52115	-950.92407	-186.86580	51.47825	-922.26868	-373.70364	36.07698	-1166.73645	-139.82095	591.87817	-1159.87988	-158.73845	466.15564	-1135.32422	40.01620	313.89310	-1077.87268	197.93373	230.13240	-1027.66882	227.22623	251.89400	-1087.70020	178.09106	72.69302	-941.38361	-68.00416	1670.08630												 
62	0.610	-873.47803	-173.88612	1623.83032	-1004.23773	-193.69926	1633.28125	-901.76532	-42.51476	1572.51123	-1028.70349	-63.77009	1586.14905	-965.20917	-50.04171	1423.15576	-988.55713	-21.39304	1092.11511	-971.30011	-161.02350	1346.68237	-978.05286	-203.08240	1171.87354	-1053.58362	23.32666	1255.63403	-806.60339	-110.37842	1367.10559	-739.90656	-68.12469	1169.24902	-729.95770	-29.17080	1063.55164	-702.19104	-6.39067	917.08905	-734.54199	-30.15913	786.48212	-702.75049	31.23414	803.89520	-697.82562	23.58404	713.47705	-1129.79456	-111.50495	1387.88708	-1231.04956	-67.56203	1198.69885	-1251.03210	-78.66772	1080.88733	-1265.89246	-137.91945	980.35162	-1223.65491	-251.96651	890.96594	-1265.02881	-207.06934	862.81183	-1262.08325	-277.33743	817.84814	-891.78131	-217.37086	949.14941	-1110.25049	-192.04372	937.26221	-904.02148	-54.80515	962.25531	-1071.45532	-43.71408	952.09265	-828.60626	-230.74600	639.88385	-862.68433	-284.81393	489.00668	-867.97510	-251.76302	233.85904	-909.61938	-232.06363	64.79276	-951.38104	-186.11119	52.22769	-922.49573	-373.70392	35.93132	-1165.84021	-161.83871	594.81543	-1159.01086	-185.18343	469.98737	-1134.34119	11.61386	317.08810	-1078.12939	167.01343	228.95007	-1028.07068	198.81654	249.45250	-1087.93567	138.11766	74.21701	-940.71252	-83.27767	1672.40149												 
63	0.620	-873.01556	-189.10828	1626.22668	-1003.66742	-209.11490	1635.80530	-901.50751	-57.69716	1575.12610	-1028.38953	-79.18131	1588.96167	-964.82813	-64.84190	1425.90259	-987.84888	-35.92240	1094.93665	-971.13055	-175.80411	1349.26770	-977.65430	-217.64551	1174.47668	-1052.40540	8.78389	1258.25696	-806.36035	-125.72736	1369.88257	-739.42828	-87.01402	1171.13794	-729.19873	-50.33839	1064.59985	-702.00238	-31.04187	917.50073	-735.98163	-56.04378	787.53967	-702.12201	4.60365	803.77991	-698.02942	-4.72414	713.43683	-1129.54004	-125.96487	1390.14282	-1230.41455	-81.49563	1200.83032	-1249.78027	-91.53864	1082.15613	-1264.61499	-148.14435	979.65656	-1222.91833	-259.40906	886.46283	-1264.24475	-213.63171	859.92346	-1261.46619	-282.21030	812.55096	-891.17291	-232.03844	951.09015	-1109.86914	-206.62114	940.63287	-903.01093	-69.70344	964.62311	-1070.22363	-58.48681	954.95703	-829.18781	-242.19420	641.17438	-863.58679	-292.30719	488.68881	-868.06409	-254.18642	234.21158	-909.81146	-232.21501	65.06935	-951.10760	-186.94110	51.95235	-922.81665	-373.66055	35.93166	-1165.01526	-183.67142	598.42072	-1158.05933	-211.39651	474.51947	-1133.85388	-18.36478	318.59860	-1078.12512	135.29079	225.89925	-1028.06335	169.00087	245.11226	-1087.91553	97.73926	74.14022	-940.25153	-98.74017	1675.04419												 
64	0.630	-872.62915	-204.43625	1628.73853	-1003.24542	-224.54135	1638.34241	-901.38489	-72.76176	1578.14807	-1028.17932	-94.43121	1592.02405	-964.42944	-79.70988	1428.67615	-986.86743	-50.61112	1097.69019	-970.88818	-190.48468	1352.06055	-977.13269	-232.27081	1177.39087	-1051.30847	-5.65608	1260.95374	-806.08521	-140.70569	1373.14172	-738.83588	-105.78617	1173.53235	-728.55334	-71.46845	1066.14819	-701.75421	-55.70907	918.45386	-737.70618	-82.43440	789.25116	-701.87939	-22.82982	803.90845	-698.31049	-34.28377	713.92157	-1129.23706	-140.18808	1392.57825	-1229.49023	-94.75841	1203.08398	-1248.56738	-104.34350	1083.82544	-1263.44519	-158.02248	979.28345	-1222.30798	-266.13431	882.09149	-1263.68188	-219.36624	857.33264	-1260.87378	-286.34128	807.38037	-890.55786	-246.66112	953.18896	-1109.32349	-221.39221	944.42999	-902.04254	-84.61897	967.06818	-1069.05750	-73.36498	958.25763	-829.60510	-253.29907	642.46552	-864.03381	-299.61258	488.43832	-868.36755	-257.30225	234.10025	-909.89160	-232.28531	65.17674	-951.20898	-187.00485	52.12486	-923.13983	-373.69589	36.01450	-1164.37976	-205.35371	602.67841	-1157.02600	-237.43315	479.83731	-1133.58313	-48.61463	319.32468	-1077.81567	102.95216	221.62128	-1027.77856	138.14598	239.03706	-1087.32275	57.05863	72.72923	-939.96301	-114.27608	1677.95398												 
65	0.640	-872.47638	-219.61885	1631.13110	-1003.01898	-239.99957	1640.67468	-901.32458	-87.72437	1581.49304	-1028.46570	-109.74683	1595.39026	-964.25775	-94.15687	1431.40833	-985.72449	-65.41216	1100.42017	-970.68414	-204.95856	1354.87732	-976.62451	-246.83179	1180.40759	-1050.27087	-20.09848	1263.55237	-805.89032	-155.16753	1376.51147	-738.67542	-123.44276	1176.29956	-728.12268	-92.95216	1068.02148	-701.87415	-81.11512	919.87701	-739.00671	-109.93157	791.57758	-701.29590	-50.81989	804.91431	-698.82263	-64.79761	714.90320	-1128.93262	-154.14522	1395.06348	-1228.47217	-107.65943	1205.43726	-1247.22363	-116.93967	1085.66748	-1262.35498	-167.58995	979.19092	-1221.75525	-272.21698	877.84698	-1263.26855	-224.68686	854.99280	-1260.53284	-289.72110	802.51178	-889.90930	-261.29691	955.25580	-1108.69910	-236.18932	948.41205	-901.31482	-99.40324	969.58484	-1068.02600	-88.36156	961.72955	-829.97437	-264.27124	643.56720	-864.43549	-306.61627	487.99365	-868.75702	-260.80707	233.69350	-910.06714	-232.67290	65.40216	-951.24377	-187.08891	52.40443	-923.39178	-373.66513	36.04084	-1163.99744	-226.96353	607.42841	-1156.27820	-262.95065	485.73459	-1133.11389	-78.74499	319.33838	-1077.30249	69.66798	216.13020	-1027.26184	106.53357	231.27592	-1086.95825	14.95683	70.80225	-939.88257	-129.91754	1681.00256												 
66	0.650	-872.41199	-234.81029	1633.49475	-1002.91980	-255.40079	1642.82861	-901.44214	-102.60021	1584.83545	-1028.55200	-124.84359	1598.47009	-964.13397	-108.52773	1434.01404	-984.62750	-80.20792	1103.09399	-970.47632	-219.21365	1357.58386	-976.11914	-261.43060	1183.40405	-1049.27026	-34.48399	1266.11438	-805.74817	-169.29863	1380.00574	-738.01636	-141.62994	1179.27783	-727.58636	-113.71570	1070.22803	-701.94067	-106.26771	921.66681	-740.41742	-137.96454	794.35266	-701.64392	-79.40685	805.73065	-699.41754	-96.23715	716.31232	-1128.61353	-167.94804	1397.60242	-1227.41418	-120.43583	1207.81641	-1245.78589	-129.35031	1087.62793	-1261.33630	-176.84180	979.33203	-1221.33691	-277.66943	873.74634	-1263.09692	-229.62463	853.01843	-1260.21790	-292.65451	797.80133	-889.16315	-275.88986	957.21185	-1107.90417	-251.10658	952.35974	-900.74658	-114.36664	972.04828	-1067.25232	-103.49686	965.22864	-830.31293	-274.90302	644.20197	-864.52002	-313.51340	487.30957	-869.14752	-264.25421	233.17612	-910.10468	-232.91153	65.39415	-951.16766	-187.07693	52.69814	-923.54669	-373.55362	36.03221	-1163.93115	-248.41348	612.43066	-1155.69434	-287.95450	491.76532	-1132.46338	-108.49013	319.18298	-1076.67444	35.97776	209.39044	-1026.63794	73.91470	221.93585	-1086.99426	-28.30078	68.45090	-939.94916	-145.58455	1684.01892												 
67	0.660	-872.43481	-249.85040	1635.83337	-1002.93848	-270.77554	1644.83923	-901.67554	-117.29607	1588.07080	-1028.68652	-139.89758	1601.42261	-964.14954	-122.65834	1436.30713	-983.68970	-94.89635	1105.62012	-970.24377	-233.48619	1360.24280	-975.54767	-276.02747	1186.30457	-1048.26416	-48.79174	1268.40381	-805.69037	-183.33696	1383.37939	-737.76929	-158.53537	1182.33447	-726.97357	-134.30743	1072.45886	-701.80951	-131.48042	923.51208	-741.74164	-166.55217	797.51819	-701.87872	-108.17627	806.98535	-700.32642	-128.12846	718.13672	-1128.28821	-181.64645	1399.98169	-1226.58386	-133.54489	1210.11804	-1244.36926	-141.55624	1089.56470	-1260.45264	-185.85762	979.62781	-1221.19373	-282.98407	869.94556	-1263.14661	-234.20117	851.30774	-1260.06079	-295.02432	793.32092	-888.24567	-290.67743	959.16553	-1107.00183	-266.14001	956.13397	-900.26630	-129.31883	974.49915	-1066.70874	-118.70544	968.59930	-830.62561	-285.15411	644.45514	-864.53986	-319.43069	486.41144	-869.49963	-267.22650	232.66718	-910.23676	-233.10663	65.65546	-952.62292	-188.64232	51.66349	-923.65216	-373.56015	36.03152	-1163.86841	-269.78738	617.37317	-1155.28699	-312.29895	497.80557	-1131.76208	-137.93846	318.62640	-1076.20874	1.34660	201.73401	-1025.83435	40.25287	211.34613	-1087.45996	-72.77301	66.40834	-940.19739	-161.12746	1686.93860												 
68	0.670	-872.62518	-264.81183	1637.96924	-1003.01709	-285.95972	1646.67627	-901.89459	-131.95274	1591.19812	-1028.93079	-154.75269	1604.15112	-964.03510	-136.77303	1438.58130	-982.68945	-109.76062	1107.89697	-970.04852	-247.60286	1362.68835	-974.96259	-290.69650	1189.04822	-1047.37744	-63.11413	1270.46216	-805.62848	-197.17488	1386.61328	-737.17194	-175.68945	1185.27295	-726.43756	-154.32439	1074.77197	-702.14856	-156.75334	925.70227	-742.95435	-195.57475	801.06921	-702.49304	-137.19476	808.37598	-701.39551	-160.70752	720.32037	-1127.93567	-195.30956	1402.08813	-1225.64197	-146.53555	1212.25232	-1242.97437	-153.52710	1091.33899	-1259.66028	-194.56531	979.95331	-1221.20532	-287.91074	866.14539	-1263.31384	-238.63400	849.83960	-1260.02563	-297.06619	789.09503	-887.45978	-305.07043	960.89410	-1106.08362	-281.29907	959.53674	-899.94104	-144.12036	976.82404	-1066.28589	-133.94876	971.72137	-830.94727	-294.80939	644.48120	-864.43530	-324.60345	485.48611	-869.55444	-269.21863	232.44350	-910.31635	-233.17250	65.80254	-952.98663	-188.87776	51.90767	-923.75159	-373.69653	35.99557	-1164.27124	-290.71881	622.48773	-1155.03162	-336.01987	503.63025	-1131.14050	-167.56546	317.23117	-1075.65552	-34.32589	193.17117	-1025.03979	5.16619	199.72243	-1088.66833	-117.40123	63.71594	-940.56122	-176.54364	1689.62170												 
69	0.680	-872.78729	-279.57724	1639.97144	-1003.20892	-301.02768	1648.29248	-902.25586	-146.47409	1594.02161	-1029.17334	-169.61401	1606.55750	-963.87366	-150.86943	1440.47876	-981.78888	-124.56319	1110.01208	-969.83313	-261.74289	1364.91235	-974.37445	-305.32755	1191.50317	-1046.61267	-77.43868	1272.23987	-805.52203	-211.12508	1389.53662	-736.30322	-193.17438	1187.99817	-725.67511	-174.24211	1076.92517	-702.14319	-181.91057	927.74396	-744.00928	-224.97134	804.90802	-703.26770	-166.64882	809.62372	-702.61981	-193.68736	722.81952	-1127.64905	-209.01056	1403.93176	-1224.67273	-159.23640	1214.08813	-1241.75464	-165.32042	1092.88892	-1259.01648	-203.06284	980.18079	-1221.52332	-292.79807	862.71497	-1263.71509	-242.79102	848.40338	-1260.27710	-298.82721	785.05780	-886.51636	-319.56439	962.39111	-1105.02222	-296.36227	962.41412	-899.62415	-159.12051	978.87091	-1065.95386	-149.33057	974.40967	-831.07361	-304.02997	644.57806	-864.10596	-329.12180	484.60745	-869.43225	-270.34506	232.47214	-910.38910	-233.49513	65.98058	-952.59943	-188.32155	52.74533	-923.69916	-373.95877	35.86209	-1164.77063	-311.34344	627.25049	-1154.77539	-359.00284	509.23257	-1130.81042	-197.39162	315.10071	-1075.32458	-70.89436	183.96448	-1024.16858	-31.17753	187.41553	-1090.17786	-162.41965	60.80590	-940.98651	-191.75777	1692.07434												 
